<svg width="270" height="134" viewBox="0 0 270 134" fill="none" xmlns="http://www.w3.org/2000/svg">
<path d="M267.844 2.08661H201.191V80.3026H267.844V2.08661Z" fill="#6B9BD2"/>
<path d="M1.72723 69.4841C1.72723 69.5471 2.18956 68.9541 3.11052 67.7088C4.03148 66.471 5.0671 65.1145 6.20997 63.6468C7.54518 61.9271 9.07271 59.9814 10.7889 57.8132C12.505 59.0252 14.2582 60.1074 16.0372 61.0636C17.5648 61.8938 19.2181 62.6276 21.0008 63.2614C22.7798 63.8989 24.4701 64.2176 26.0605 64.2176C27.0148 64.2176 27.9838 64.073 28.9713 63.7877C29.9589 63.5023 30.8466 63.102 31.6455 62.5943C32.4407 62.0828 33.0916 61.4787 33.602 60.7782C34.1087 60.0777 34.364 59.3106 34.364 58.4841C34.364 56.5087 33.2507 54.7704 31.0241 53.2731C28.7975 51.7758 26.0642 50.3897 22.8168 49.1111C20.7789 48.2846 18.667 47.2468 16.47 46.0052C14.2767 44.7637 12.272 43.2664 10.4597 41.5133C8.64737 39.7603 7.16792 37.7367 6.02134 35.4388C4.87477 33.1447 4.30518 30.5652 4.30518 27.6965C4.30518 24.9539 4.76751 22.3411 5.69217 19.8542C6.61312 17.3673 7.99641 15.1695 9.84203 13.2571C11.6876 11.3447 13.9771 9.83259 16.7104 8.71331C19.4437 7.60145 22.6541 7.04181 26.3453 7.04181C29.2081 7.04181 31.8156 7.3939 34.1716 8.09437C36.524 8.79485 38.6544 9.62504 40.5666 10.5812C42.475 11.5374 44.1246 12.5418 45.5264 13.5944C46.9245 14.647 48.1044 15.5253 49.0586 16.2221L40.2781 28.1746C40.0894 28.0486 39.5309 27.6484 38.61 26.9775C37.6853 26.3067 36.5572 25.6062 35.222 24.8761C33.8868 24.146 32.3889 23.4715 30.7356 22.8673C29.0786 22.2632 27.3624 21.9593 25.5834 21.9593C23.8672 21.9593 22.3693 22.4226 21.1007 23.3454C19.8283 24.272 19.1922 25.369 19.1922 26.644C19.1922 28.4304 20.0355 30.0389 21.722 31.4732C23.4086 32.9075 26.1604 34.39 29.9774 35.9206C31.823 36.6841 33.872 37.6403 36.1319 38.7892C38.3881 39.9382 40.4889 41.3688 42.4307 43.0922C44.3687 44.8118 45.9924 46.8688 47.2981 49.2593C48.6037 51.6498 49.2546 54.4702 49.2546 57.7206C49.2546 60.2075 48.7405 62.7092 47.7271 65.2257C46.71 67.7459 45.2268 70.04 43.2887 72.1081C41.347 74.1799 38.9761 75.8736 36.18 77.1745C33.3801 78.4828 30.2326 79.1351 26.7337 79.1351C23.6157 79.1351 20.642 78.72 17.8126 77.8898C14.972 77.0707 12.4274 76.096 10.1712 74.9767C7.91134 73.8612 6.03614 72.7789 4.54189 71.7264C3.04395 70.6775 2.10819 69.9289 1.72723 69.4841Z" fill="#575880"/>
<path d="M57.6469 9.62503H74.1538L89.9951 45.9608L105.836 9.62503H122.343L89.9951 79.2352L57.6469 9.62503Z" fill="#575880"/>
<path d="M187.424 54.2812C187.106 58.9325 185.804 63.0798 183.511 66.7119C182.557 68.2425 181.329 69.7547 179.838 71.252C178.344 72.7493 176.499 74.0909 174.305 75.2695C172.108 76.4481 169.534 77.3858 166.575 78.0899C163.616 78.7941 160.195 79.1425 156.315 79.1425C151.355 79.1425 146.691 78.2011 142.338 76.3184C137.977 74.4393 134.175 71.8598 130.917 68.5724C127.658 65.2924 125.099 61.4676 123.235 57.0979C121.371 52.732 120.438 48.0622 120.438 43.0922C120.438 38.1184 121.371 33.4486 123.235 29.0827C125.099 24.7167 127.658 20.8919 130.917 17.6082C134.175 14.3245 137.977 11.745 142.338 9.86224C146.691 7.98319 151.355 7.04181 156.315 7.04181C161.279 7.04181 165.939 7.99431 170.296 9.89559C174.653 11.7969 178.455 14.3616 181.699 17.5897L171.202 28.082C169.29 26.2326 167.067 24.7538 164.522 23.6345C161.978 22.519 159.237 21.9593 156.311 21.9593C153.386 21.9593 150.653 22.5041 148.104 23.5938C145.56 24.6834 143.333 26.1881 141.424 28.1079C139.516 30.0278 138.022 32.27 136.938 34.831C135.858 37.392 135.318 40.1457 135.318 43.0922C135.318 46.0386 135.858 48.7923 136.938 51.3533C138.022 53.9143 139.516 56.1566 141.424 58.0764C143.333 59.9999 145.56 61.5009 148.104 62.5906C150.649 63.6802 153.386 64.225 156.311 64.225C160.384 64.225 163.516 63.7098 165.713 62.6795C167.907 61.6492 169.512 60.4928 170.533 59.2031C171.679 57.7243 172.345 56.0491 172.537 54.1849H156.311V39.2673H187.421V54.2812H187.424Z" fill="#575880"/>
<path d="M220.302 29.8461H217.565V37.3698H211.795V11.4263H223.075C224.333 11.4263 225.524 11.6672 226.645 12.149C227.765 12.6308 228.738 13.2868 229.567 14.1096C230.395 14.9397 231.042 15.9145 231.527 17.0375C232.008 18.1642 232.248 19.3538 232.248 20.6177C232.248 21.6072 232.096 22.5449 231.801 23.4344C231.505 24.3239 231.102 25.1467 230.58 25.899C230.066 26.6514 229.445 27.3185 228.731 27.9004C228.017 28.4785 227.229 28.9307 226.367 29.2494L232.248 37.366H225.147L220.302 29.8461ZM217.561 24.398H223.072C223.593 24.398 224.074 24.3016 224.533 24.1015C224.988 23.9051 225.391 23.6308 225.738 23.2861C226.082 22.9378 226.352 22.5375 226.548 22.0816C226.748 21.6258 226.844 21.1365 226.844 20.6177C226.844 19.6503 226.519 18.8202 225.864 18.1123C225.21 17.4118 224.429 16.9967 223.516 16.8707H217.561V24.398V24.398Z" fill="#F7F7F7"/>
<path d="M246.536 31.5881H258.619V37.3698H240.167V11.4263H258.619V17.2079H246.536V21.2514H256.622V27.0331H246.536V31.5881Z" fill="#F7F7F7"/>
<path d="M231.475 55.2115C231.475 56.4716 231.238 57.6613 230.754 58.788C230.273 59.911 229.618 60.8931 228.797 61.7344C227.969 62.5757 226.996 63.2317 225.872 63.7172C224.751 64.1991 223.56 64.4362 222.302 64.4362H216.791V71.9599H211.025V46.0164H222.302C223.56 46.0164 224.751 46.2573 225.872 46.7391C226.996 47.2209 227.969 47.8769 228.797 48.6997C229.622 49.5299 230.273 50.5046 230.754 51.6276C231.238 52.758 231.475 53.9514 231.475 55.2115ZM216.788 58.9918H222.299C222.82 58.9918 223.301 58.8955 223.763 58.6953C224.218 58.4989 224.618 58.2246 224.965 57.88C225.313 57.5316 225.579 57.1313 225.779 56.6754C225.979 56.2196 226.075 55.7303 226.075 55.2115C226.075 54.2442 225.746 53.414 225.095 52.7061C224.437 52.0056 223.656 51.5905 222.746 51.4645H216.788V58.9918V58.9918Z" fill="#F7F7F7"/>
<path d="M237.289 58.6434C237.289 56.7273 237.615 54.9409 238.273 53.2694C238.931 51.6016 239.827 50.1488 240.962 48.9146C242.098 47.6805 243.425 46.7057 244.949 45.9904C246.473 45.2788 248.108 44.9193 249.839 44.9193C251.603 44.9193 253.249 45.2788 254.78 45.9904C256.319 46.7057 257.654 47.6805 258.789 48.9146C259.925 50.1488 260.82 51.6016 261.478 53.2694C262.137 54.9409 262.462 56.731 262.462 58.6434C262.462 60.5299 262.137 62.3015 261.478 63.9619C260.82 65.6222 259.925 67.0677 258.789 68.3018C257.654 69.536 256.319 70.5107 254.78 71.2223C253.249 71.9339 251.603 72.2934 249.839 72.2934C248.104 72.2934 246.473 71.9339 244.949 71.2223C243.425 70.5107 242.098 69.536 240.962 68.3018C239.827 67.0677 238.931 65.6185 238.273 63.9619C237.615 62.3052 237.289 60.5299 237.289 58.6434ZM242.504 58.6434C242.504 59.7627 242.7 60.8079 243.089 61.7789C243.477 62.7536 244.006 63.595 244.664 64.314C245.323 65.033 246.103 65.6 246.991 66.0114C247.886 66.4228 248.833 66.6303 249.839 66.6303C250.871 66.6303 251.832 66.4228 252.742 66.0114C253.645 65.6 254.432 65.033 255.098 64.314C255.771 63.5987 256.297 62.7536 256.674 61.7789C257.059 60.8079 257.243 59.7627 257.243 58.6434C257.243 57.5242 257.055 56.479 256.674 55.5043C256.297 54.5332 255.771 53.6808 255.098 52.9544C254.432 52.2243 253.645 51.6461 252.742 51.2199C251.832 50.7974 250.871 50.5824 249.839 50.5824C248.836 50.5824 247.89 50.7974 246.991 51.2199C246.103 51.6461 245.323 52.2243 244.664 52.9544C244.006 53.6808 243.481 54.537 243.089 55.5043C242.7 56.479 242.504 57.5242 242.504 58.6434Z" fill="#F7F7F7"/>
<path d="M2.85645 124V92.0078H12.7002C15.5127 92.0078 18.0249 92.645 20.2368 93.9194C22.4634 95.1792 24.1992 96.981 25.4443 99.3247C26.6895 101.654 27.312 104.305 27.312 107.279V108.751C27.312 111.725 26.6968 114.369 25.4663 116.683C24.2505 118.998 22.5293 120.792 20.3027 122.066C18.0762 123.341 15.564 123.985 12.7661 124H2.85645ZM9.44824 97.3472V118.705H12.6343C15.2124 118.705 17.1826 117.862 18.5449 116.178C19.9072 114.493 20.603 112.083 20.6323 108.949V107.257C20.6323 104.005 19.9585 101.544 18.6108 99.874C17.2632 98.1895 15.293 97.3472 12.7002 97.3472H9.44824ZM58.4033 108.729C58.4033 111.878 57.8467 114.64 56.7334 117.013C55.6201 119.386 54.0234 121.217 51.9434 122.506C49.8779 123.795 47.5049 124.439 44.8242 124.439C42.1729 124.439 39.8071 123.802 37.7271 122.528C35.647 121.253 34.0356 119.437 32.8931 117.079C31.7505 114.706 31.1719 111.981 31.1572 108.905V107.323C31.1572 104.173 31.7212 101.405 32.8491 99.0171C33.9917 96.6147 35.5957 94.7764 37.6611 93.502C39.7412 92.2129 42.1143 91.5684 44.7803 91.5684C47.4463 91.5684 49.812 92.2129 51.8774 93.502C53.9575 94.7764 55.5615 96.6147 56.6895 99.0171C57.832 101.405 58.4033 104.166 58.4033 107.301V108.729ZM51.7236 107.279C51.7236 103.924 51.123 101.375 49.9219 99.6323C48.7207 97.8892 47.0068 97.0176 44.7803 97.0176C42.5684 97.0176 40.8618 97.8818 39.6606 99.6104C38.4595 101.324 37.8516 103.844 37.8369 107.169V108.729C37.8369 111.996 38.4375 114.53 39.6387 116.332C40.8398 118.133 42.5684 119.034 44.8242 119.034C47.0361 119.034 48.7354 118.17 49.9219 116.441C51.1084 114.698 51.709 112.164 51.7236 108.839V107.279ZM88.1104 114.771L92.417 92.0078H98.9868L91.8896 124H85.2539L80.0464 102.599L74.8389 124H68.2031L61.106 92.0078H67.6758L72.0044 114.728L77.2778 92.0078H82.8589L88.1104 114.771ZM109.16 118.705H123.157V124H102.568V92.0078H109.16V118.705ZM151.831 108.729C151.831 111.878 151.274 114.64 150.161 117.013C149.048 119.386 147.451 121.217 145.371 122.506C143.306 123.795 140.933 124.439 138.252 124.439C135.601 124.439 133.235 123.802 131.155 122.528C129.075 121.253 127.463 119.437 126.321 117.079C125.178 114.706 124.6 111.981 124.585 108.905V107.323C124.585 104.173 125.149 101.405 126.277 99.0171C127.419 96.6147 129.023 94.7764 131.089 93.502C133.169 92.2129 135.542 91.5684 138.208 91.5684C140.874 91.5684 143.24 92.2129 145.305 93.502C147.385 94.7764 148.989 96.6147 150.117 99.0171C151.26 101.405 151.831 104.166 151.831 107.301V108.729ZM145.151 107.279C145.151 103.924 144.551 101.375 143.35 99.6323C142.148 97.8892 140.435 97.0176 138.208 97.0176C135.996 97.0176 134.29 97.8818 133.088 99.6104C131.887 101.324 131.279 103.844 131.265 107.169V108.729C131.265 111.996 131.865 114.53 133.066 116.332C134.268 118.133 135.996 119.034 138.252 119.034C140.464 119.034 142.163 118.17 143.35 116.441C144.536 114.698 145.137 112.164 145.151 108.839V107.279ZM174.199 117.408H162.642L160.444 124H153.435L165.344 92.0078H171.453L183.428 124H176.418L174.199 117.408ZM164.421 112.069H172.419L168.398 100.094L164.421 112.069ZM186.416 124V92.0078H196.26C199.072 92.0078 201.584 92.645 203.796 93.9194C206.023 95.1792 207.759 96.981 209.004 99.3247C210.249 101.654 210.872 104.305 210.872 107.279V108.751C210.872 111.725 210.256 114.369 209.026 116.683C207.81 118.998 206.089 120.792 203.862 122.066C201.636 123.341 199.124 123.985 196.326 124H186.416ZM193.008 97.3472V118.705H196.194C198.772 118.705 200.742 117.862 202.104 116.178C203.467 114.493 204.163 112.083 204.192 108.949V107.257C204.192 104.005 203.518 101.544 202.17 99.874C200.823 98.1895 198.853 97.3472 196.26 97.3472H193.008ZM234.932 110.135H222.275V118.705H237.129V124H215.684V92.0078H237.085V97.3472H222.275V104.972H234.932V110.135ZM252.839 112.289H247.588V124H240.996V92.0078H252.883C256.663 92.0078 259.578 92.8501 261.628 94.5347C263.679 96.2192 264.705 98.5996 264.705 101.676C264.705 103.858 264.229 105.682 263.276 107.147C262.339 108.597 260.911 109.754 258.992 110.619L265.913 123.692V124H258.838L252.839 112.289ZM247.588 106.949H252.905C254.561 106.949 255.842 106.532 256.75 105.697C257.659 104.847 258.113 103.683 258.113 102.203C258.113 100.694 257.681 99.5078 256.816 98.6436C255.967 97.7793 254.656 97.3472 252.883 97.3472H247.588V106.949Z" fill="#575880"/>
</svg>
